<svg version="1.1" xmlns="http://www.w3.org/2000/svg" width="500px" height="322.541px">
<rect x="439.422" fill="#F57E25" width="60.578" height="35.83"/>
<rect x="439.422" y="35.826" fill="#FBB034" width="60.578" height="35.835"/>
<rect x="439.422" y="71.665" fill="#C3ABD3" width="60.578" height="35.834"/>
<rect x="439.422" y="107.499" fill="#7581BF" width="60.578" height="35.831"/>
<rect x="439.422" y="143.33" fill="#71D0F6" width="60.578" height="35.834"/>
<rect x="439.422" y="179.16" fill="#009DDC" width="60.578" height="35.835"/>
<rect x="439.422" y="214.995" fill="#FFD200" width="60.578" height="35.83"/>
<rect x="439.422" y="250.829" fill="#A0CF67" width="60.578" height="35.835"/>
<rect x="439.422" y="286.702" fill="#00B259" width="60.578" height="35.839"/>
<rect fill="#0065A4" width="439.422" height="322.541"/>
<path fill="#FFFFFF" d="M349.082,232.883C238.34,335.317,32.471,254.635,33.656,122.244c0.693-77.516,92.615-105.469,182.234-66.003
	c-93.611-34.067-153.29-0.713-153.29,52.746c0,70.809,99.048,138.641,175.37,116.037l-57.64-38.326h7.254l86.388,41.546
	C188.508,278.925,24.852,194.6,53.475,88.735C14.3,203.958,198.087,313.593,312.612,232.038l-119.462-45.34h5.533L349.082,232.883z
	 M215.402,113.638c11.009,0,19.902-9.723,21.146-22.898c0.701-7.243-1.05-13.548-4.879-17.776
	c-3.065-3.363-7.234-5.289-12.044-5.289c-11.091,0-19.718,9.436-20.97,22.731c-0.717,7.425,1.004,13.843,4.837,18.032
	C206.48,111.735,210.604,113.638,215.402,113.638 M241.335,71.045c4.782,5.224,6.999,12.258,6.301,19.779
	c-1.519,15.989-15.524,28.115-32.668,28.115c-8.433,0-15.981-3.101-21.027-8.643c-4.692-5.173-6.894-12.16-6.181-19.701
	c1.516-15.877,15.733-28.309,32.362-28.309C228.679,62.287,236.196,65.391,241.335,71.045 M287.675,103.941l1.159,3.686
	c0.864,2.725,1.871,5.271,3.042,6.798c0.748,0.969,1.601,1.329,3.239,1.767l-0.488,1.93l-7.695,0.016
	c-4.333,0-5.65-1.856-7.747-8.246l-3.174-10.029c-2.725-6.84-6.871-6.898-9.216-6.898h-2.867c-0.271,2.941-1.52,16.412-1.52,16.412
	c-0.054,0.67-0.097,1.321-0.097,1.914c0,1.604,0.26,2.705,0.694,3.601c0.271,0.608,0.953,0.938,2.068,1.317l-0.349,1.953
	l-15.791-0.039l-0.318-1.914c1.977-0.744,3.461-1.771,3.864-6.639l3.607-37.748c0.48-4.914-0.275-5.918-2.6-6.84l0.379-1.903h17.769
	c7.088,0,10.296,0.807,13.745,3.473c2.821,2.255,4.363,5.661,4.363,9.463c0,0.45-0.023,0.903-0.069,1.368
	c-0.538,5.767-3.987,9.944-8.866,11.99c-1.527,0.644-2.403,0.86-3.79,1.116c3.402,1.201,7.324,3.534,9.075,8.723L287.675,103.941z
	 M266.33,68.104c-0.108,1.136-1.806,18.729-1.938,20.055h2.748c1.871,0,11.164-0.504,12.109-10.553
	c0.039-0.48,0.07-0.945,0.07-1.383c0-2.329-0.612-4.209-1.86-5.558c-2.17-2.395-5.759-2.562-7.204-2.562H266.33 M214.646,165.973
	l1.174,3.689c0.876,2.721,1.856,5.278,3.046,6.816c0.74,0.961,1.597,1.321,3.235,1.744l-0.492,1.941l-7.68,0.027
	c-4.349,0-5.674-1.868-7.767-8.255l-3.17-10.032c-2.713-6.836-6.871-6.891-9.223-6.891h-2.86
	c-0.271,2.938-1.531,16.408-1.531,16.408c-0.058,0.654-0.089,1.298-0.089,1.93c0,1.573,0.248,2.682,0.683,3.588
	c0.294,0.598,0.977,0.927,2.092,1.307l-0.344,1.965h-15.77l-0.337-1.965c1.957-0.732,3.453-1.744,3.853-6.643l3.588-37.749
	c0.496-4.901-0.26-5.913-2.592-6.828l0.379-1.906l17.784-0.004c7.076,0,10.281,0.813,13.737,3.483
	c2.817,2.244,4.371,5.65,4.371,9.456c0,0.457-0.022,0.899-0.065,1.372c-0.546,5.759-3.999,9.939-8.878,11.982
	c-1.527,0.65-2.395,0.864-3.782,1.115c3.406,1.21,7.313,3.531,9.067,8.739L214.646,165.973z M193.316,130.15
	c-0.116,1.139-1.794,18.725-1.926,20.054h2.74c1.852,0,11.148-0.511,12.109-10.56c0.039-0.473,0.063-0.945,0.063-1.376
	c0-2.337-0.628-4.208-1.864-5.561c-2.17-2.396-5.755-2.558-7.188-2.558H193.316 M345.998,93.451c0.294-3.1,1.1-4.188,3.526-5.448
	l-0.431-1.813l-13.741-0.02l-0.407,1.86c1.783,0.829,2.666,1.856,2.643,4.267c0,0.396-0.034,0.817-0.077,1.278
	c0,0-1.24,14.312-1.41,16.195c-0.187,0.108-0.392,0.221-0.392,0.221c-6.174,2.973-8.212,3.503-12.42,3.503
	c-5.821,0-10.762-1.984-14.091-5.635c-3.72-4.104-5.228-10.079-4.562-17.214c1.221-12.966,10.549-22.841,21.705-22.841
	c9.019,0,15.92,6.321,16.99,14.932l1.995-0.027l0.919-14.438l-0.477-0.345c-6.701-3.945-12.529-5.639-19.478-5.639
	c-17.078,0-30.673,11.982-32.215,28.374c-0.783,8.026,1.341,15.028,5.999,20.132c4.805,5.302,12.272,8.22,20.973,8.22
	c8.115,0,17.896-2.845,24.329-7.088l0.938-0.636l-0.535-0.62c-0.36-0.461-1.085-1.186-1.062-1.902
	c0.008-0.236,0.023-0.484,0.047-0.787C344.766,107.979,345.998,93.475,345.998,93.451 M128.635,180.327l0.14-1.896
	c1.597-0.396,2.441-0.786,2.991-3.692c0.125-0.644,0.226-1.151,0.311-2.055l3.879-39.837c0.082-0.892,0.12-1.64,0.12-2.291
	c0-2.906-0.821-3.604-2.333-4.003l0.214-1.782h17.732c3.612,0,5.438,0.213,7.584,0.658c6.123,1.295,10.716,6.355,10.716,11.386
	c0,0.329-0.004,0.655-0.043,0.984c-0.435,4.298-2.977,8.169-6.557,10.382c-1.364,0.849-2.209,1.193-3.364,1.624
	c0.856,0.166,1.302,0.298,2.069,0.55c6.309,1.992,10.061,7.046,10.061,13.386c0,0.488-0.02,0.949-0.07,1.438
	c-0.341,3.542-1.774,6.444-4.43,9.227c-1.724,1.795-3.739,3.112-5.994,4.065c-3.154,1.396-6.217,1.856-11.277,1.856H128.635z
	 M143.88,152.716c-0.101,1.012-2.007,21.38-2.127,22.589h7.343c7.914,0,13.238-4.166,13.882-10.89
	c0.038-0.407,0.05-0.817,0.05-1.248c0-2.558-0.813-4.813-2.383-6.541c-2.278-2.504-5.991-3.91-10.688-3.91H143.88 M160.269,138.955
	c0.023-0.295,0.035-0.608,0.035-0.896c0-2.101-0.71-4.03-2.046-5.499c-1.689-1.856-4.217-2.871-7.135-2.871h-5.809
	c-0.09,0.999-1.608,16.977-1.713,18.171h5.738C155.273,147.86,159.761,144.21,160.269,138.955 M313.771,130.743
	c0.333,1.274,2.182,7.646,2.182,7.646s3.154-6.518,3.716-7.836c0.667-1.565,0.078-2.887-2.952-2.887
	C313.674,127.666,313.438,129.483,313.771,130.743 M283.769,133.472c-0.953-2.415-1.317-4.104-4.107-5.833l-0.163-0.128l0.868-2.255
	h14.56l0.097,2.515c-1.755,0.399-1.884,1.193-1.953,1.903c-0.046,0.601,1.155,3.96,1.62,5.507c0,0,7.44,23.763,8.688,27.692
	c1.612-3.205,3.767-7.15,6.053-11.561c-0.76-2.495-5.413-18.027-5.413-18.027c-1.082-3.581-2.299-4.588-4.085-5.662l0.919-2.441
	l29.266-0.026l0.24,2.511c-1.892,0.725-3.516,2.465-5.186,5.592c0,0-6.502,12.819-6.863,13.518
	c0.19,0.643,3.516,11.056,4.627,14.702c3.547-7.696,13.691-29.707,13.691-29.727c0.683-1.442,0.647-1.449,0.697-1.98
	c0.113-1.186-0.278-1.593-2.324-2l0.473-2.615l27.096,0.016c0,0,25.228,32.56,27.285,35.295c0.624-6.588,2.422-26.007,2.422-26.007
	c0.039-0.585,0.07-1.186,0.07-1.79c0-1.565-0.07-2.93-0.403-3.705c-0.31-0.743-0.774-1.221-2.286-1.895l0.38-1.888h12.028
	l0.264,1.98c-3.03,0.899-3.848,1.899-4.387,7.352l-4.572,47.716c-15.145-19.559-32.374-42.02-34.823-45.286
	c-0.438,4.422-1.565,17.047-3.274,34.711c-0.151,1.534-0.19,1.817-0.19,2.581c0,1.189,0.101,1.763,0.442,2.472
	c0.387,0.706,0.837,1.078,2.17,1.683l-0.403,1.871l-11.405-0.038l-0.355-1.892c3.158-1.313,3.669-2.503,4.127-7.344l3.434-36.167
	c0.496-5.395-2.295-6.987-4.593-6.987c-2.313,0-4.426,1.871-6.507,6.413l-22.127,47.67c0,0-6.395-18.889-7.875-22.709
	c-1.906,3.755-12.873,22.709-12.873,22.709L283.769,133.472 M355.612,90.564c-0.136,1.41-1.756,18.726-1.756,18.726
	c-0.48,4.681-1.31,5.785-3.952,6.874l0.363,1.829h34.691l2.473-7.452l-1.627-0.977c-1.039,1.221-2.155,1.764-3.303,2.144
	c-1.999,0.644-3.487,0.906-6.959,0.906h-12.114c0.132-1.387,1.906-20.562,2.015-21.751h7.976c2.666,0,3.627,0.232,4.41,0.612
	c0.697,0.244,1.487,1.131,1.705,2.077l1.888-0.256l1.011-10.188l-1.93-0.26c-0.565,1.065-0.768,1.438-1.977,1.973
	c-1.015,0.589-1.938,0.693-4.588,0.693h-7.976c0.132-1.337,1.512-15.997,1.628-17.226h11.97c1.842,0,3.764,0.318,4.748,0.834
	c0.732,0.372,1.104,0.898,1.496,2.294l1.934-0.198l0.778-8.23h-32.985l-0.736,1.841c2.445,1.093,3.061,2.286,2.619,6.972
	l-1.364,14.09L355.612,90.564z M248.279,175.73c11.029,0,19.911-9.711,21.167-22.883c0.682-7.228-1.055-13.544-4.898-17.776
	c-3.069-3.352-7.216-5.285-12.029-5.285c-11.095,0-19.725,9.439-20.965,22.729c-0.713,7.417,1,13.822,4.829,18.051
	C239.366,173.852,243.497,175.73,248.279,175.73 M274.213,133.161c4.785,5.22,7.021,12.262,6.293,19.775
	c-1.508,15.989-15.501,28.111-32.645,28.111c-8.448,0-15.994-3.108-21.035-8.649c-4.689-5.146-6.898-12.153-6.17-19.694
	c1.496-15.873,15.727-28.309,32.374-28.309C261.549,124.396,269.098,127.511,274.213,133.161 M154.669,90.855
	c-0.132,1.414-1.756,18.431-1.756,18.431c-0.469,4.685-1.286,5.785-3.929,6.882l0.367,1.825h34.688l2.457-7.452l-1.639-0.98
	c-1.02,1.225-2.159,1.768-3.306,2.144c-1.973,0.651-3.473,0.91-6.929,0.91h-12.142c0.132-1.391,1.93-20.565,2.03-21.751h7.964
	c2.662,0,3.631,0.229,4.438,0.612c0.682,0.24,1.461,1.135,1.678,2.077l1.903-0.252l0.991-10.192l-1.906-0.26
	c-0.581,1.069-0.798,1.438-1.984,1.969c-1.03,0.593-1.961,0.697-4.596,0.697h-7.96c0.132-1.333,1.504-15.997,1.612-17.226h11.967
	c1.86,0,3.767,0.318,4.774,0.838c0.736,0.368,1.089,0.895,1.465,2.29l1.953-0.198l0.782-8.23h-32.989l-0.756,1.845
	c2.449,1.089,3.068,2.278,2.619,6.972l-1.294,13.761l-21.104-0.023l-0.435,1.957c1.896,0.872,2.829,1.961,2.794,4.487
	c0,0.419-0.023,0.86-0.073,1.341c0,0.004-1.356,15.439-1.542,17.408c-0.21,0.12-0.419,0.232-0.419,0.232
	c-6.472,3.135-8.606,3.689-13.028,3.689c-6.119,0-11.293-2.093-14.788-5.926c-3.91-4.298-5.511-12.129-4.806-19.62
	c1.303-13.603,11.084-23.984,22.795-23.984c9.447,0,16.687,7.007,17.826,15.172l2.084-0.023l1-14.648l-0.523-0.368
	c-7.037-4.139-13.133-5.917-20.445-5.917c-17.911,0-32.191,12.567-33.835,29.801c-0.79,8.417,1.431,17.318,6.31,22.678
	c5.057,5.564,12.912,8.626,22.026,8.626c8.503,0,18.771-2.987,25.538-7.444l1.008-0.662l-0.566-0.659
	c-0.402-0.477-1.158-1.244-1.135-1.996c0.004-0.24,0.016-0.507,0.05-0.829c0,0,1.372-15.605,1.372-15.637
	C145.275,90.514,152.068,90.855,154.669,90.855 M278.986,198.463c-0.248,2.636,0.48,5.03,2.132,6.855
	c1.782,1.945,4.534,3.104,7.561,3.104c2.647,0,5.123-0.616,7.344-1.814l0.147-0.081l0.008-0.14c0.756-4.204,0.756-4.204,0.445-4.316
	l-0.252-0.086l-0.12,0.225c-2.12,3.666-5.165,4.062-6.405,4.062c-2.047,0-3.697-0.624-4.81-1.895
	c-1.329-1.427-1.934-3.713-1.682-6.247c0.422-4.565,3.585-7.635,7.894-7.635c1.543,0,4.348,0.516,5.553,4.026l0.082,0.248
	l0.287-0.046c0.286-0.066,0.286-0.066,0.398-4.581l0.008-0.189l-0.178-0.089c-2.077-1.008-4.15-1.488-6.499-1.488
	C283.691,188.376,279.467,193.448,278.986,198.463 M312.244,190.449c-3.689,0-6.402,2.953-6.891,7.518
	c-0.054,0.508-0.073,0.961-0.073,1.384c0,2.735,0.888,4.313,1.717,5.212c0.953,1.081,2.267,1.647,3.739,1.647
	c3.654,0,6.325-2.98,6.759-7.584c0.299-2.81-0.236-5.158-1.53-6.6C315.016,190.983,313.748,190.449,312.244,190.449
	 M300.862,198.219c0.547-4.832,4.856-9.932,11.801-9.843c2.821,0.031,5.557,1.256,7.339,3.212c1.612,1.853,2.349,4.252,2.027,6.945
	c-0.748,6.557-6.464,9.936-11.691,9.886c-2.953-0.047-5.658-1.24-7.426-3.209C301.293,203.326,300.564,200.843,300.862,198.219
	 M331.248,190.229v-0.008V190.229z M332.415,188.689l0.128,0.601c-0.388,0.202-0.612,0.523-0.651,0.98
	c0,0-1.473,15.095-1.534,15.695c0.116,0,0.229,0.016,0.229,0.016s2.499,0.101,2.546,0.101c3.03-0.116,3.845-0.147,4.774-1.601
	l0.558,0.283l-1.007,3.383h-11.858l-0.147-0.624c0.457-0.217,0.682-0.535,0.729-0.973l1.558-16.33
	c0.039-0.462-0.112-0.74-0.496-0.931l0.14-0.601H332.415z M343.998,188.689l-0.132,0.601c0.419,0.19,0.565,0.469,0.527,0.938
	l-1.589,16.322c-0.055,0.445-0.279,0.756-0.736,0.973l0.139,0.624h11.905l0.98-3.383l-0.554-0.283
	c-0.961,1.469-1.756,1.484-4.798,1.601c-0.047,0-2.554-0.101-2.554-0.101s-0.104-0.016-0.205-0.016
	c0.065-0.601,1.519-15.688,1.519-15.688c0.062-0.477,0.264-0.786,0.675-0.988l-0.14-0.601H343.998z M371.779,188.689h-11.125
	l-0.133,0.601c0.396,0.214,0.582,0.516,0.543,0.931l-1.589,16.33c-0.046,0.496-0.306,0.717-0.786,0.988l-1.02,0.608h13.323
	l0.941-3.383l-0.546-0.291c-1.039,1.53-1.98,1.558-4.146,1.608h-0.311c-1.256,0.046-2.6-0.027-3.247-0.108
	c0.062-0.535,0.682-7.042,0.729-7.538h3.898c0.225,0,0.534,0.299,0.604,0.566l0.612-0.035l0.302-2.945l-0.619-0.166
	c-0.117,0.259-0.535,0.589-0.779,0.589h-3.833c0.051-0.563,0.5-5.271,0.543-5.751c0.5,0.008,4.421,0.046,4.421,0.046
	c1.004,0.059,1.446,0.26,1.814,0.853l0.496,0.834l0.232-3.736H371.779z M375.725,198.463c-0.244,2.628,0.516,5.019,2.139,6.836
	c1.818,1.953,4.608,3.124,7.67,3.124c2.348,0,6.409-0.814,8.789-2.066l0.383-0.189l-0.348-0.317
	c-0.074-0.074-0.244-0.446-0.214-0.841l0.407-4.124c0.035-0.469,0.268-0.79,0.701-1.022l1.008-0.586h-7.224l0.945,0.578
	c0.318,0.182,0.454,0.426,0.454,0.798c0,0.051-0.008,0.104-0.008,0.171c0,0-0.415,4.31-0.446,4.646
	c-1.178,0.678-2.597,0.802-3.325,0.802c-2.084,0-3.681-0.62-4.836-1.883c-1.279-1.419-1.898-3.713-1.65-6.259
	c0.426-4.565,3.6-7.635,7.858-7.635c0.466,0,4.426,0.116,5.538,4.116l0.593-0.066l0.229-4.6l-0.189-0.085
	c-2.217-1.004-4.29-1.484-6.479-1.484C380.499,188.376,376.248,193.448,375.725,198.463 M411.912,188.689h-11.165l-0.14,0.601
	c0.419,0.214,0.612,0.512,0.574,0.938l-1.598,16.322c-0.042,0.5-0.294,0.725-0.774,0.988l-1.077,0.608h13.381l0.945-3.383
	l-0.546-0.291c-1.069,1.53-1.984,1.558-4.162,1.608h-0.325c-1.229,0.046-2.573-0.035-3.244-0.108
	c0.051-0.535,0.701-7.042,0.748-7.538h3.902c0.225,0,0.543,0.299,0.616,0.566l0.597-0.035l0.275-2.945l-0.563-0.17
	c-0.139,0.263-0.562,0.593-0.806,0.593h-3.829c0.059-0.563,0.496-5.271,0.559-5.751c0.48,0.008,4.387,0.046,4.387,0.046
	c1.008,0.059,1.457,0.26,1.845,0.853l0.496,0.818l0.236-3.721H411.912z"/>
</svg>
