<?xml version="1.0" encoding="UTF-8"?>
<svg id="Layer_2" data-name="Layer 2" xmlns="http://www.w3.org/2000/svg" viewBox="0 0 341.72 128.84">
  <defs>
    <style>
      .cls-1 {
        fill: #3e008f;
      }

      .cls-2 {
        fill: #fff;
      }
    </style>
  </defs>
  <g>
    <path class="cls-1" d="M31.82,109.49c-8.16.7-14.97.55-19.9-.98-4.93-1.53-8.3-4.47-10.1-8.71C.02,95.55-.44,89.71.42,82.36c9.92-.2,14.88-.42,24.8-1.06-.53,4-.15,6.73,1.15,8.16,1.3,1.44,3.95,1.99,7.95,1.63,3.47-.32,6-1.11,7.6-2.34,1.6-1.23,2.58-3.14,2.9-5.69.21-1.67.02-2.94-.55-3.8-.57-.85-1.65-1.37-3.25-1.55-6.72-.71-10.08-1.12-16.8-2.06-6.73-1-11.6-3.59-14.6-7.65-3-4.06-3.94-10.19-2.9-18.18,1.29-9.96,4.93-17.42,11-22.32,6.07-4.9,14.47-7.23,25.2-7.42,11.13-.19,19.17,1.51,24.1,5.3,4.93,3.79,6.8,10.65,5.6,20.83-10,.9-15,1.28-25,1.87.4-2.46.45-4.43.15-5.91-.3-1.48-1.03-2.55-2.2-3.2-1.17-.66-2.88-.94-5.15-.86-2.73.1-4.73.61-6,1.57-1.27.96-2.14,2.63-2.5,4.94-.29,1.83-.05,3.15.65,3.89.7.74,1.68,1.24,2.95,1.5,6.96,1.14,10.44,1.65,17.4,2.55,7.27.96,12.24,3.28,14.9,7.08,2.67,3.8,3.43,9.49,2.3,17.21-1.34,9.11-5.2,16.47-11.35,22.07-6.7,6.09-18.28,9.83-26.95,10.57Z"/>
    <path class="cls-1" d="M99.12,97.53c-10.04,1.87-15.06,2.76-25.1,4.39,3.2-21.37,6.44-42.73,9.7-64.09-8.32.76-12.48,1.1-20.8,1.68,1-7.39,1.5-11.07,2.5-18.41,22.26-1.24,44.42-3.1,66.6-5.31-1,6.78-1.5,10.18-2.5,17.01-8.28,1.03-12.42,1.53-20.7,2.46-3.26,20.75-6.5,41.51-9.7,62.27Z"/>
    <path class="cls-1" d="M142.92,90.32c-6,1.28-11.15,1.81-15.45,1.6-4.3-.22-7.75-1.31-10.35-3.25-2.6-1.95-4.35-4.81-5.25-8.56-.9-3.75-.92-8.51-.05-14.22,2.51-16.28,5.04-32.56,7.6-48.84,9.96-.96,14.94-1.48,24.9-2.54-2.42,14.7-4.82,29.4-7.2,44.1-.53,3.52-.65,6.36-.35,8.51.3,2.15,1.22,3.6,2.75,4.32,1.53.73,3.83.8,6.9.22,3.13-.59,5.67-1.57,7.6-2.93,1.93-1.35,3.43-3.2,4.5-5.53,1.07-2.33,1.87-5.2,2.4-8.6,2.38-14.24,4.78-28.47,7.2-42.7,7.84-.87,11.76-1.31,19.6-2.16-2.55,14.81-5.09,29.62-7.6,44.44-1.2,6.98-3.2,12.83-6,17.57-2.8,4.74-6.72,8.6-11.75,11.56-5.03,2.96-11.52,5.33-19.45,7.02Z"/>
    <path class="cls-1" d="M200.12,76.55c-11.97,2.52-23.94,5.1-35.9,7.67,4.01-24.42,8.07-48.84,12.2-73.24,11.96-1.33,23.93-2.63,35.9-3.84,5.4-.55,10.18-.54,14.35-.02,4.17.52,7.58,1.84,10.25,3.93,2.67,2.09,4.42,5.16,5.25,9.22.83,4.06.65,9.36-.55,15.97-1.2,6.62-3.03,12.23-5.5,16.85-2.47,4.63-5.48,8.47-9.05,11.53-3.57,3.05-7.6,5.53-12.1,7.4-4.5,1.88-9.45,3.39-14.85,4.53ZM191.62,63.03c2.52-.48,3.78-.72,6.3-1.19,3.53-.66,6.52-1.78,8.95-3.32,2.43-1.55,4.43-3.82,6-6.81,1.57-2.99,2.8-6.97,3.75-11.88.98-5.05,1.23-8.86.7-11.43-.53-2.57-1.82-4.24-3.85-5.02-2.04-.77-4.82-.95-8.35-.5-2.52.32-3.78.48-6.3.81-2.42,13.11-4.82,26.22-7.2,39.34Z"/>
    <path class="cls-1" d="M259.82,64.99c-10.04,1.71-15.06,2.64-25.1,4.57,4-21.87,8.07-43.72,12.2-65.56,10.04-.79,15.06-1.13,25.1-1.67-4.14,20.88-8.2,41.77-12.2,62.67Z"/>
    <path class="cls-1" d="M296.32,60.73c-5.73.74-10.83,1-15.3.71-4.47-.29-8.14-1.38-11-3.31-2.87-1.93-4.78-4.91-5.75-8.91-.97-4.01-.81-9.27.45-15.68,1.27-6.46,3.2-11.89,5.8-16.23,2.6-4.34,5.8-7.77,9.6-10.3,3.8-2.52,8.12-4.32,12.95-5.38C297.9.56,303.18.01,308.92,0c5.8-.01,10.93.5,15.4,1.47,4.47.97,8.13,2.58,11,4.77,2.87,2.19,4.78,5.11,5.75,8.73.97,3.63.87,8.19-.35,13.67-1.23,5.49-3.2,10.12-5.8,13.87-2.6,3.75-5.82,6.83-9.65,9.25-3.83,2.42-8.17,4.33-13,5.73-4.83,1.4-10.15,2.48-15.95,3.23ZM298.82,47.57c3.07-.31,5.65-1.02,7.75-2.11,2.1-1.09,3.87-2.93,5.3-5.49,1.43-2.56,2.74-6.17,3.75-10.7.76-3.41,1.1-6.25,1.1-8.43s-.37-3.87-1.1-5.09c-.73-1.22-1.87-2.05-3.4-2.5-1.53-.44-3.43-.64-5.7-.57-3,.09-5.55.64-7.65,1.65-2.1,1.01-3.87,2.82-5.3,5.42-1.43,2.6-2.71,6.38-3.75,11.3-1.02,4.8-1.33,8.51-1,11.01.33,2.5,1.33,4.13,3,4.88,1.66.75,4,.95,7,.65Z"/>
  </g>
  <g>
    <path class="cls-2" d="M43.7,108.87c-.73-1.47-.92-3.28-.55-5.39.37-2.12,1-4.3,1.9-6.55.9-2.25,1.93-4.45,3.1-6.62,1.17-2.17,2.22-4.07,3.15-5.7-.24-.05-.36-.08-.6-.14-.73-.28-1.45-.59-2.15-.92-.7-.34-1.38-.78-2.05-1.32-2.73,3.66-5.62,7.21-8.65,10.63-3.03,3.42-6.25,6.56-9.65,9.37-1.67,1.36-3.45,2.68-5.35,3.94s-3.84,2.26-5.8,2.97c-1.97.71-3.92,1.04-5.85.98-1.93-.06-3.74-.71-5.4-1.91-1.59-1.14-2.8-2.65-3.6-4.5-.8-1.85-1.3-3.87-1.5-6.02-.2-2.16-.15-4.37.15-6.63.3-2.26.75-4.39,1.35-6.4,1.4-4.52,3.42-8.65,6.05-12.42,2.63-3.77,5.45-7.16,8.45-10.22.93-.96,1.88-1.91,2.85-2.83.97-.93,2.66-1.99,3.05-2.75,1.08-2.08,1.23-7.4,2.7-10.93,1.47-3.52,3.26-6.75,5.4-9.58,2.42-3.2,5.38-5.94,8.75-8.24,3.37-2.3,6.9-3.55,10.55-3.77,2.65-.16,5.2.31,7.6,1.36,2.4,1.05,4.27,2.66,5.6,4.85,1.87-.93,3.8-1.91,5.8-2.94,2-1.03,4.03-1.99,6.1-2.87,2.07-.88,4.12-1.63,6.15-2.27,2.03-.63,4.06-1.1,5.95-1.26,1.75-.15,3.15.15,4.05.78.9.63,1.45,1.51,1.65,2.64.2,1.13.08,2.44-.35,3.95-.43,1.5-1.08,3-1.95,4.51-1.2,2.2-2.52,4.35-3.95,6.45-1.43,2.1-2.92,4.21-4.45,6.32,1.4-1.54,2.1-2.3,3.5-3.81,3.2-3.33,6.52-6.58,9.95-9.74,3.43-3.16,7.05-5.86,10.85-8.1,1.2-.75,2.7-1.51,4.5-2.26,1.8-.75,3.57-1.26,5.3-1.54,1.73-.28,3.25-.19,4.55.25,1.3.44,2.07,1.48,2.35,3.09.26,1.5.17,3.08-.3,4.76-.47,1.68-1.15,3.37-2.05,5.09-.9,1.72-1.9,3.41-3,5.06-1.1,1.66-2.18,3.21-3.25,4.64-2.6,3.57-5.47,7.08-8.6,10.54-3.13,3.46-6.43,6.78-9.8,9.95-3.07,2.88-6.37,5.74-9.9,8.46-3.53,2.72-7.15,5.16-10.85,7.27-3.7,2.11-7.42,3.77-11.15,4.92-3.73,1.15-7.3,1.52-10.7,1.06-1.2,1.87-2.38,3.78-3.55,5.73-1.17,1.95-2.22,3.96-3.15,6.03-.93,2.07-1.7,4.12-2.3,6.17-.6,2.04-.9,4.01-.9,5.89ZM36.5,76.08c-1.8.58-3.47.57-5-.04-1.53-.61-2.88-1.6-4.05-2.95-1.17-1.36-2.15-2.97-2.95-4.82-.8-1.85-1.37-3.71-1.7-5.57-3.87,3.88-7.42,8.06-10.65,12.59-3.23,4.53-5.82,9.5-7.75,14.98-.73,2.03-1.22,4.19-1.45,6.48-.23,2.3.18,4.48,1.05,6.44.89,2.01,2.15,3.56,3.85,4.41,1.7.85,3.49,1.16,5.35.92,2-.25,3.97-.87,5.9-1.83,1.93-.95,3.82-2.17,5.65-3.62,1.83-1.45,3.62-3.04,5.35-4.77,1.73-1.72,3.36-3.54,4.9-5.28,1.61-1.83,3.33-3.8,5-5.9,1.67-2.1,3.27-4.28,4.8-6.52-1.27-1.58-2.2-3.46-2.8-5.6-.6-2.15-.76-4.55-.5-7.18.2-2.01.65-4.04,1.35-6.09.7-2.04,1.6-3.98,2.7-5.8,1.1-1.82,2.4-3.46,3.9-4.92s3.12-2.62,4.85-3.48c-1.27,1.85-2.47,3.78-3.6,5.79-1.13,2.01-2.12,4.11-2.95,6.29-.83,2.18-1.45,4.37-1.85,6.56-.4,2.2-.43,4.38-.1,6.53.13.79.32,1.56.55,2.31.23.76.52,1.46.85,2.11,3.6-5.52,6.68-11.2,9.25-17.03,2.57-5.82,4.15-11.47,4.75-17.01.2-1.7.18-3.33-.05-4.89-.23-1.56-.62-2.99-1.15-4.32-3.67,2.21-7.25,4.51-10.75,6.9-3.5,2.39-6.95,4.96-10.35,7.7-2.27,1.85-4.57,3.76-6.9,5.71-2.33,1.96-4.63,4.02-6.9,6.21,0,1.97.27,3.94.8,5.9.53,1.96,1.3,3.7,2.3,5.2,1,1.5,2.2,2.69,3.6,3.56,1.4.87,2.97,1.21,4.7,1.03ZM26,53.66c5.13-4.16,10.52-7.99,16.15-11.53,5.63-3.54,11.28-6.85,16.95-9.91-.73-1.21-1.65-2.25-2.75-3.11-1.1-.87-2.44-1.59-3.95-2.08-1.76-.57-3.67-.69-5.6-.42-1.93.27-3.84.86-5.7,1.76-1.87.9-3.63,2.07-5.3,3.5-1.67,1.43-3.12,3.09-4.4,4.79-1.08,1.44-2.1,3.03-2.9,4.75-.2.41-.28.79-.25,1.14.03.35.08.73.15,1.15.07.42.13.83.2,1.21.07.38,0,.78-.2,1.19-.33,1.37-.73,2.65-1.2,3.84-.47,1.19-.87,2.44-1.2,3.73ZM61.3,56.61c-1.6,3.99-3.48,7.88-5.65,11.67-2.17,3.79-4.52,7.49-7.05,11.08,1.07,1.16,2.4,2.15,4,2.95,1.93-3.42,3.97-6.82,6.1-10.19,2.13-3.37,4.3-6.65,6.5-9.84.67-1.14,1.27-2.25,1.8-3.34.53-1.09,1.03-2.2,1.5-3.33.27-.65.53-1.49.8-2.52.27-1.03.17-1.75-.3-2.18.53-.02,1.1.13,1.7.43.6.31.93.8,1,1.48,2.13-3.04,4.22-6.03,6.25-8.98,2.03-2.94,4.02-5.94,5.95-8.99,1.07-1.65,2.07-3.33,3-5.02.93-1.69,1.77-3.4,2.5-5.12.27-.67.25-1.16-.05-1.48-.3-.32-.7-.54-1.2-.64-.5-.11-1.05-.14-1.65-.08-.6.05-1.1.09-1.5.13-3.47.47-6.98,1.53-10.55,3.24-3.57,1.7-7.05,3.56-10.45,5.57.13.11.22.27.25.48.03.21.08.37.15.5.67,1.77,1.03,3.63,1.1,5.6.07,1.97-.07,4-.4,6.07-.33,2.08-.85,4.2-1.55,6.36-.7,2.16-1.45,4.22-2.25,6.18ZM54.9,83.08c1.87.46,3.89.48,6,.18,3.67-.53,7.45-1.75,11.15-3.7,3.7-1.95,7.27-4.37,10.7-7.19,3.43-2.82,6.73-5.89,9.9-9.18,3.17-3.29,6.08-6.64,8.75-9.98,2.77-3.47,5.45-7.04,7.95-10.7,2.5-3.66,4.55-7.31,6.15-11,.53-1.19,1-2.52,1.4-4s.42-2.79.1-3.93c-.21-.74-.69-1.2-1.45-1.35-.77-.15-1.62-.12-2.55.11-.93.23-1.87.55-2.8.97-.93.42-1.7.81-2.3,1.15-3.8,2.05-7.4,4.57-10.8,7.59-3.4,3.02-6.72,6.16-9.9,9.41-2.4,2.46-4.75,5.04-7.05,7.68-2.3,2.64-4.61,5.38-6.75,8.18-2.88,3.77-5.73,7.74-8.6,11.62-2.87,3.88-5.7,7.9-8.5,12.05-.56.84-.84,1.27-1.4,2.11Z"/>
    <path class="cls-2" d="M125.6,19.54c4.12-1.76,8.2-2.34,12.2-1.84,3.13-2.57,6.52-4.83,10.15-6.72,3.63-1.89,7.44-3.11,11.35-3.57,1.72-.2,3.5-.19,5.3,0,1.8.19,3.48.61,5.05,1.22,1.57.62,2.92,1.47,4.05,2.54,1.13,1.07,1.92,2.33,2.3,3.76.41,1.52.46,3.07.2,4.63-.27,1.56-.73,3.1-1.4,4.64-.67,1.54-1.48,3.04-2.45,4.51-.97,1.48-1.98,2.85-3.05,4.13-2.33,2.87-4.98,5.65-7.95,8.4-2.97,2.75-6.25,5.38-9.85,7.94-.52.37-.78.56-1.3.93.53.98.88,2.07,1.05,3.27.17,1.19.08,2.49-.25,3.88-.73,3.13-2.3,6.19-4.7,9.28-2.4,3.09-5.2,5.85-8.4,8.3-1.67,1.27-3.48,2.44-5.45,3.51-1.97,1.07-3.93,1.93-5.9,2.57-1.97.64-3.87,1.05-5.7,1.21-1.83.16-3.49-.06-4.95-.67-1.53-.64-2.7-1.64-3.5-2.98-.8-1.34-1.35-2.9-1.65-4.65-.3-1.75-.37-3.64-.2-5.64.17-2,.38-3.99.75-5.81.18-.87.4-1.75.6-2.6.2-.85.43-1.72.7-2.63-.67-.51-1.23-1.06-1.7-1.65-2.13-2.44-3.27-5.42-3.4-8.88-.13-3.46.5-6.96,1.9-10.44,1.4-3.48,3.5-6.74,6.3-9.72,2.8-2.98,6.1-5.3,9.9-6.92ZM117.2,36.92c.6-.29,1.32-.37,2.15-.24.83.13,1.38.47,1.65,1,2.13-3.55,4.47-6.91,7-10.03,2.53-3.12,5.23-5.95,8.1-8.47-3.53.1-7.07,1.06-10.6,2.96-.87.49-1.68,1-2.45,1.53-.77.54-1.52,1.13-2.25,1.79-.53.43-1.2,1.11-2,2.04-.8.93-1.53,1.49-2.2,1.66-1.33.35-2.28.83-2.85,1.44-.57.62-1.22,1.55-1.95,2.82-1.27,2.16-2.15,4.28-2.65,6.35-.5,2.07-.65,4.03-.45,5.88.2,1.85.7,3.56,1.5,5.1.8,1.55,1.83,2.88,3.1,3.99,1-3.01,2.2-6.09,3.6-9.22.27-.82.5-1.65.7-2.51.2-.85.39-1.71.5-2.53.08-.55.1-1.27.1-2.09s-.33-1.33-1-1.5ZM118.5,70.67c-1.4-1.05-2.1-2.55-2.1-4.48s.43-3.98,1.3-6.12c-.68-.27-1.02-.41-1.7-.69-1,2.81-1.75,5.58-2.25,8.27-.5,2.7-.57,5.1-.2,7.18.37,2.08,1.3,3.66,2.8,4.72,1.5,1.06,3.8,1.38,6.85.96,3.59-.49,7.2-1.9,10.8-4.07,3.6-2.17,6.73-4.76,9.4-7.78,1.27-1.41,2.4-2.9,3.4-4.49,1-1.59,1.77-3.15,2.3-4.69.53-1.54.8-3.04.8-4.49s-.37-2.76-1.1-3.92c-3.13,2.09-6.43,4.01-9.9,5.72-3.47,1.71-7,2.97-10.6,3.69-1.13.26-2.27.42-3.4.48-1.13.06-2.23.04-3.3-.08-.87,1.63-1.55,3.27-2.05,4.91-.5,1.64-.85,3.27-1.05,4.87ZM122.1,45.52c-.8,1.57-1.67,3.33-2.6,5.3-.93,1.97-1.83,4.09-2.7,6.35.76.25,1.14.38,1.9.63,1.13-2.16,2.47-4.08,4-5.78,2.73-2.92,5.82-5,9.25-6.26,3.43-1.26,6.72-1.55,9.85-.93,2.6.51,4.8,1.57,6.6,3.11,3.93-2.96,7.5-6.06,10.7-9.32,3.2-3.26,5.97-6.31,8.3-9.25.93-1.12,1.93-2.37,3-3.73,1.07-1.36,1.97-2.76,2.7-4.2.73-1.45,1.2-2.88,1.4-4.33.2-1.45-.13-2.87-1-4.22-.91-1.42-2.24-2.48-3.9-3.12-1.67-.64-3.45-1-5.35-1.05-1.9-.05-3.8.15-5.7.6s-3.58,1.01-5.05,1.65c-4.2,1.9-8.07,4.47-11.6,7.65.93.32,1.85.72,2.75,1.21.9.49,1.75,1.02,2.55,1.58-1.87-.86-3.97-1.52-6.3-1.95-3.87,3.61-7.33,7.7-10.4,12.2-3.07,4.5-5.87,9.15-8.4,13.89ZM128.9,51.26c-2.33,2.12-4.33,4.52-6,7.19,1.13.1,2.33.07,3.6-.08,1.27-.15,2.57-.46,3.9-.86,2.96-.91,5.87-2.09,8.6-3.56,2.73-1.47,5.37-3.12,7.9-4.92-1.13-.85-2.42-1.45-3.85-1.78-1.43-.33-2.95-.41-4.55-.23-1.6.18-3.23.63-4.9,1.36-1.67.73-3.23,1.69-4.7,2.9Z"/>
  </g>
</svg>